<svg xmlns="http://www.w3.org/2000/svg" width="128" height="128" viewBox="0 0 128 128">
  <defs>
    <linearGradient id="g" x1="18" y1="12" x2="112" y2="118" gradientUnits="userSpaceOnUse">
      <stop stop-color="#1597e5"/>
      <stop offset="1" stop-color="#7c3aed"/>
    </linearGradient>
  </defs>
  <rect width="128" height="128" rx="32" fill="url(#g)"/>
  <path d="M27 88 47.5 37h10L78 88H66.5l-4.4-12.2H42.8L38.4 88H27Zm19-21h13L52.5 49 46 67Z" fill="white"/>
  <path d="M75 42h25v8h-3.6c-1.1 8.2-4.3 15.1-9.5 20.8 4.1 3 8.8 5.3 14.1 6.7l-3.2 8.2a49.7 49.7 0 0 1-17.2-9.2 53.2 53.2 0 0 1-13.2 7.8l-3.1-8a45 45 0 0 0 10-5.7A48.2 48.2 0 0 1 68 61l7.3-3.6a36 36 0 0 0 5.4 7.5c3.8-4.2 6.3-9.2 7.3-14.9H72v-5.7h3V42Zm-1.7 8h-7.8v-8h7.8v8Z" fill="white" opacity=".94"/>
</svg>
